<svg width="264" height="332" viewBox="0 0 264 332" fill="none" xmlns="http://www.w3.org/2000/svg">
<g opacity="0.38">
<g opacity="0.38">
<path opacity="0.38" d="M96.6772 180.097L96.5894 182.954H96.6333V187.472H101.252V186.762L101.041 180.097H96.6772Z" fill="#D7E8F0"/>
<path opacity="0.38" d="M94.5407 171.554C95.7992 173.271 96.5563 175.509 96.6801 177.879H101.047C101.154 175.719 101.791 173.662 102.864 172.012C103.606 170.896 104.523 170.001 105.553 169.389C106.583 168.776 107.703 168.461 108.835 168.464H110.17L110.427 160.23C110.494 158.84 110.341 157.448 109.978 156.139C109.615 154.829 109.049 153.632 108.315 152.62C107.582 151.609 106.697 150.805 105.716 150.26C104.734 149.714 103.677 149.438 102.61 149.448H95.126C94.0601 149.436 93.0038 149.711 92.0225 150.254C91.0414 150.798 90.1564 151.599 89.4229 152.608C88.6895 153.618 88.1229 154.813 87.7585 156.121C87.3944 157.428 87.2402 158.819 87.3057 160.207L87.5633 168.464H88.9037C89.9538 168.462 90.9934 168.735 91.9616 169.265C92.9298 169.796 93.8066 170.574 94.5407 171.554Z" fill="#D7E8F0"/>
<path opacity="0.38" d="M124.121 180.097L124.034 182.954H124.078V187.472H128.696V186.762L128.488 180.097H124.121Z" fill="#D7E8F0"/>
<path opacity="0.38" d="M121.982 171.554C123.238 173.272 123.995 175.509 124.121 177.879H128.491C128.598 175.719 129.235 173.662 130.308 172.012C131.05 170.896 131.967 170.002 132.997 169.389C134.028 168.777 135.147 168.461 136.279 168.464H137.617L137.871 160.23C137.938 158.841 137.785 157.448 137.423 156.139C137.059 154.83 136.494 153.633 135.761 152.622C135.028 151.61 134.143 150.807 133.162 150.261C132.18 149.715 131.124 149.438 130.057 149.448H122.555C121.49 149.436 120.434 149.71 119.453 150.254C118.472 150.797 117.587 151.599 116.854 152.607C116.12 153.616 115.553 154.811 115.189 156.118C114.824 157.424 114.67 158.815 114.735 160.203L114.996 168.461H116.333C117.385 168.458 118.427 168.73 119.397 169.261C120.368 169.793 121.246 170.572 121.982 171.554Z" fill="#D7E8F0"/>
<path opacity="0.38" d="M151.569 180.097L151.478 182.954H151.522V187.472H156.14V186.762L155.933 180.097H151.569Z" fill="#D7E8F0"/>
<path opacity="0.38" d="M149.426 171.554C150.685 173.271 151.442 175.509 151.566 177.879H155.93C156.043 175.718 156.684 173.662 157.759 172.012C158.5 170.896 159.417 170.002 160.448 169.389C161.478 168.777 162.597 168.461 163.729 168.464H165.076L165.33 160.23C165.397 158.841 165.245 157.448 164.882 156.139C164.518 154.83 163.953 153.633 163.22 152.622C162.487 151.61 161.602 150.807 160.621 150.261C159.64 149.715 158.583 149.438 157.516 149.448H150.003C148.937 149.436 147.881 149.711 146.899 150.254C145.918 150.798 145.034 151.599 144.3 152.608C143.566 153.618 143 154.813 142.635 156.121C142.271 157.428 142.117 158.819 142.183 160.207L142.44 168.464H143.778C144.83 168.461 145.872 168.732 146.841 169.263C147.812 169.794 148.691 170.573 149.426 171.554Z" fill="#D7E8F0"/>
<path opacity="0.38" d="M179.013 180.097L178.925 182.954H178.969V187.472H183.584V186.762L183.376 180.097H179.013Z" fill="#D7E8F0"/>
<path opacity="0.38" d="M176.87 171.554C178.129 173.271 178.886 175.509 179.01 177.879H183.376C183.485 175.718 184.125 173.662 185.2 172.012C185.941 170.896 186.858 170.001 187.889 169.389C188.919 168.776 190.038 168.461 191.17 168.464H192.505L192.763 160.23C192.83 158.84 192.677 157.448 192.314 156.139C191.95 154.829 191.384 153.632 190.651 152.62C189.918 151.609 189.033 150.805 188.051 150.26C187.069 149.714 186.012 149.438 184.945 149.448H177.447C176.381 149.436 175.325 149.711 174.343 150.254C173.362 150.798 172.477 151.599 171.744 152.608C171.01 153.618 170.444 154.813 170.079 156.121C169.715 157.428 169.561 158.819 169.627 160.207L169.884 168.464H171.222C172.273 168.46 173.315 168.732 174.286 169.263C175.256 169.793 176.135 170.572 176.87 171.554Z" fill="#D7E8F0"/>
<path opacity="0.38" d="M206.457 180.097L206.369 182.954H206.413V187.472H211.031V186.758L210.821 180.097H206.457Z" fill="#D7E8F0"/>
<path opacity="0.38" d="M204.315 171.554C205.573 173.271 206.33 175.509 206.454 177.879H210.821C210.93 175.718 211.569 173.662 212.644 172.012C213.385 170.896 214.302 170.001 215.333 169.389C216.363 168.776 217.483 168.461 218.615 168.464H219.952L220.207 160.23C220.274 158.841 220.121 157.448 219.758 156.139C219.395 154.83 218.829 153.633 218.096 152.622C217.363 151.61 216.479 150.807 215.497 150.261C214.516 149.715 213.459 149.438 212.392 149.448H204.879C203.813 149.436 202.757 149.711 201.776 150.254C200.795 150.798 199.91 151.599 199.176 152.608C198.443 153.618 197.876 154.813 197.512 156.121C197.148 157.428 196.994 158.819 197.059 160.207L197.32 168.464H198.657C199.71 168.459 200.754 168.729 201.726 169.26C202.698 169.791 203.578 170.571 204.315 171.554Z" fill="#D7E8F0"/>
<path opacity="0.38" d="M233.901 180.097L233.813 182.954H233.854V187.472H238.473V182.954H244.976C245.552 182.955 246.106 182.664 246.521 182.143C246.936 181.623 247.181 180.913 247.203 180.162L247.247 178.692C246.964 179.119 246.616 179.465 246.225 179.707C245.834 179.949 245.409 180.082 244.976 180.097H233.901Z" fill="#D7E8F0"/>
<path opacity="0.38" d="M231.762 171.553C233.02 173.27 233.777 175.508 233.901 177.878H244.976C245.551 177.877 246.104 177.588 246.519 177.068C246.934 176.548 247.179 175.84 247.203 175.09L247.663 160.225C247.73 158.836 247.577 157.444 247.214 156.135C246.851 154.826 246.285 153.628 245.552 152.617C244.819 151.606 243.934 150.802 242.953 150.256C241.972 149.71 240.915 149.434 239.848 149.444H232.338C231.272 149.431 230.215 149.704 229.234 150.247C228.252 150.791 227.367 151.592 226.633 152.601C225.899 153.611 225.333 154.807 224.969 156.115C224.605 157.422 224.452 158.814 224.518 160.202L224.781 168.46H226.119C227.17 168.458 228.211 168.731 229.18 169.262C230.149 169.793 231.027 170.572 231.762 171.553Z" fill="#D7E8F0"/>
<path opacity="0.38" d="M96.6772 218.125L96.5894 220.978H96.6333V225.5H101.252V224.786L101.041 218.125H96.6772Z" fill="#D7E8F0"/>
<path opacity="0.38" d="M94.5407 209.577C95.7989 211.296 96.556 213.535 96.6801 215.906H101.047C101.155 213.743 101.795 211.684 102.87 210.032C103.613 208.917 104.53 208.023 105.56 207.411C106.59 206.799 107.709 206.483 108.841 206.484H110.175L110.433 198.249C110.5 196.86 110.347 195.468 109.983 194.159C109.62 192.851 109.054 191.653 108.32 190.642C107.587 189.631 106.702 188.828 105.721 188.283C104.739 187.737 103.682 187.461 102.616 187.472H95.126C94.0601 187.46 93.0038 187.734 92.0225 188.278C91.0414 188.821 90.1564 189.623 89.4229 190.632C88.6895 191.641 88.1229 192.836 87.7585 194.144C87.3944 195.451 87.2402 196.842 87.3057 198.231L87.5633 206.484H88.9037C89.9538 206.483 90.9934 206.757 91.9613 207.288C92.9295 207.819 93.8063 208.598 94.5407 209.577Z" fill="#D7E8F0"/>
<path opacity="0.38" d="M124.121 218.125L124.034 220.978H124.078V225.5H128.696V224.786L128.488 218.125H124.121Z" fill="#D7E8F0"/>
<path opacity="0.38" d="M121.982 209.577C123.238 211.298 123.994 213.536 124.122 215.906H128.491C128.599 213.743 129.239 211.684 130.315 210.032C131.057 208.917 131.974 208.023 133.004 207.411C134.034 206.799 135.153 206.483 136.285 206.484H137.623L137.877 198.249C137.944 196.861 137.791 195.469 137.428 194.16C137.064 192.852 136.498 191.655 135.766 190.644C135.033 189.633 134.148 188.83 133.167 188.284C132.186 187.738 131.129 187.462 130.063 187.472H122.556C121.49 187.46 120.433 187.734 119.452 188.278C118.471 188.821 117.586 189.623 116.853 190.632C116.119 191.641 115.553 192.836 115.188 194.144C114.824 195.451 114.67 196.842 114.735 198.231L114.996 206.484H116.333C117.385 206.483 118.427 206.756 119.397 207.287C120.367 207.819 121.246 208.597 121.982 209.577Z" fill="#D7E8F0"/>
<path opacity="0.38" d="M151.569 218.125L151.478 220.978H151.522V225.5H156.14V224.786L155.933 218.125H151.569Z" fill="#D7E8F0"/>
<path opacity="0.38" d="M149.426 209.577C150.685 211.296 151.442 213.535 151.566 215.906H155.93C156.042 213.743 156.683 211.684 157.759 210.032C158.501 208.917 159.419 208.023 160.449 207.411C161.479 206.799 162.598 206.483 163.729 206.484H165.076L165.33 198.249C165.397 196.861 165.244 195.469 164.881 194.16C164.517 192.852 163.952 191.655 163.219 190.644C162.486 189.633 161.601 188.83 160.62 188.284C159.639 187.738 158.582 187.462 157.516 187.472H150.003C148.937 187.46 147.881 187.734 146.899 188.278C145.918 188.821 145.034 189.623 144.3 190.632C143.566 191.641 143 192.836 142.635 194.144C142.271 195.451 142.117 196.842 142.183 198.231L142.44 206.484H143.778C144.83 206.483 145.871 206.756 146.841 207.287C147.811 207.819 148.69 208.597 149.426 209.577Z" fill="#D7E8F0"/>
<path opacity="0.38" d="M179.013 218.125L178.925 220.978H178.969V225.5H183.584V224.786L183.376 218.125H179.013Z" fill="#D7E8F0"/>
<path opacity="0.38" d="M176.87 209.577C178.128 211.296 178.886 213.535 179.01 215.906H183.376C183.485 213.743 184.124 211.684 185.2 210.032C185.942 208.917 186.86 208.023 187.889 207.411C188.92 206.799 190.039 206.483 191.17 206.484H192.505L192.763 198.249C192.829 196.86 192.676 195.468 192.313 194.159C191.949 192.851 191.383 191.653 190.65 190.642C189.917 189.631 189.032 188.828 188.05 188.283C187.069 187.737 186.012 187.461 184.945 187.472H177.447C176.381 187.46 175.325 187.734 174.343 188.278C173.362 188.821 172.477 189.623 171.744 190.632C171.01 191.641 170.444 192.836 170.079 194.144C169.715 195.451 169.561 196.842 169.627 198.231L169.884 206.484H171.222C172.274 206.481 173.315 206.754 174.286 207.285C175.256 207.817 176.134 208.596 176.87 209.577Z" fill="#D7E8F0"/>
<path opacity="0.38" d="M206.457 218.125L206.369 220.978H206.413V225.5H211.031V224.786L210.821 218.125H206.457Z" fill="#D7E8F0"/>
<path opacity="0.38" d="M204.315 209.577C205.573 211.296 206.33 213.535 206.454 215.906H210.821C210.929 213.743 211.569 211.684 212.644 210.032C213.387 208.917 214.304 208.023 215.334 207.411C216.364 206.799 217.483 206.483 218.615 206.484H219.952L220.207 198.249C220.274 196.861 220.12 195.469 219.757 194.16C219.394 192.852 218.828 191.655 218.095 190.644C217.362 189.633 216.478 188.83 215.497 188.284C214.515 187.738 213.459 187.462 212.392 187.472H204.879C203.813 187.46 202.757 187.734 201.776 188.278C200.795 188.821 199.91 189.623 199.176 190.632C198.443 191.641 197.876 192.836 197.512 194.144C197.148 195.451 196.994 196.842 197.059 198.231L197.32 206.484H198.657C199.711 206.48 200.754 206.752 201.726 207.283C202.698 207.814 203.578 208.595 204.315 209.577Z" fill="#D7E8F0"/>
<path opacity="0.38" d="M233.901 218.125L233.813 220.978H233.854V225.5H238.473V220.978H244.976C245.552 220.978 246.105 220.688 246.52 220.169C246.935 219.649 247.18 218.94 247.203 218.19L247.247 216.715C246.965 217.144 246.617 217.49 246.226 217.733C245.835 217.976 245.409 218.109 244.976 218.125H233.901Z" fill="#D7E8F0"/>
<path opacity="0.38" d="M231.762 209.578C233.02 211.296 233.777 213.535 233.901 215.906H244.976C245.551 215.905 246.104 215.614 246.519 215.094C246.934 214.573 247.179 213.865 247.203 213.115L247.663 198.25C247.73 196.861 247.576 195.469 247.213 194.16C246.85 192.852 246.284 191.655 245.551 190.644C244.818 189.633 243.934 188.83 242.952 188.284C241.971 187.738 240.915 187.462 239.848 187.472H232.338C231.272 187.459 230.215 187.732 229.234 188.276C228.252 188.819 227.367 189.62 226.633 190.63C225.899 191.639 225.333 192.835 224.969 194.143C224.605 195.451 224.452 196.842 224.518 198.231L224.776 206.484H226.113C227.165 206.483 228.207 206.756 229.177 207.288C230.146 207.819 231.025 208.598 231.762 209.578Z" fill="#D7E8F0"/>
<path opacity="0.38" d="M96.6772 256.153L96.5894 259.007H96.6333V263.524H101.252V262.814L101.041 256.153H96.6772Z" fill="#D7E8F0"/>
<path opacity="0.38" d="M94.5407 247.606C95.7989 249.323 96.556 251.561 96.6801 253.931H101.047C101.155 251.769 101.795 249.711 102.87 248.061C103.613 246.946 104.53 246.052 105.56 245.44C106.59 244.828 107.709 244.511 108.841 244.513H110.175L110.433 236.278C110.5 234.889 110.347 233.496 109.983 232.188C109.62 230.879 109.054 229.682 108.32 228.671C107.587 227.66 106.702 226.857 105.721 226.311C104.739 225.766 103.682 225.49 102.616 225.5H95.126C94.0601 225.488 93.0038 225.763 92.0225 226.306C91.0414 226.85 90.1564 227.651 89.4229 228.66C88.6895 229.67 88.1229 230.865 87.7585 232.173C87.3944 233.48 87.2402 234.871 87.3057 236.259L87.5633 244.513H88.9037C89.9538 244.512 90.9934 244.786 91.9613 245.317C92.9295 245.848 93.8063 246.627 94.5407 247.606Z" fill="#D7E8F0"/>
<path opacity="0.38" d="M124.121 256.153L124.034 259.007H124.078V263.524H128.696V262.814L128.488 256.153H124.121Z" fill="#D7E8F0"/>
<path opacity="0.38" d="M121.982 247.606C123.238 249.325 123.995 251.562 124.122 253.931H128.491C128.599 251.769 129.239 249.711 130.315 248.061C131.057 246.946 131.974 246.052 133.004 245.44C134.034 244.828 135.153 244.511 136.285 244.513H137.623L137.877 236.278C137.944 234.889 137.791 233.497 137.428 232.189C137.064 230.88 136.498 229.683 135.766 228.672C135.033 227.661 134.148 226.858 133.167 226.312C132.186 225.767 131.129 225.49 130.063 225.5H122.556C121.49 225.488 120.433 225.763 119.452 226.306C118.471 226.85 117.586 227.651 116.853 228.66C116.119 229.67 115.553 230.865 115.188 232.173C114.824 233.48 114.67 234.871 114.735 236.259L114.996 244.513H116.333C117.385 244.511 118.427 244.785 119.397 245.316C120.367 245.847 121.246 246.626 121.982 247.606Z" fill="#D7E8F0"/>
<path opacity="0.38" d="M151.569 256.153L151.478 259.007H151.522V263.524H156.14V262.814L155.933 256.153H151.569Z" fill="#D7E8F0"/>
<path opacity="0.38" d="M149.426 247.606C150.685 249.323 151.442 251.561 151.566 253.931H155.93C156.042 251.769 156.684 249.711 157.759 248.061C158.501 246.946 159.419 246.052 160.449 245.44C161.479 244.828 162.598 244.511 163.729 244.513H165.076L165.33 236.278C165.397 234.889 165.244 233.497 164.881 232.189C164.517 230.88 163.952 229.683 163.219 228.672C162.486 227.661 161.601 226.858 160.62 226.312C159.639 225.767 158.582 225.49 157.516 225.5H150.003C148.937 225.488 147.881 225.763 146.899 226.306C145.918 226.85 145.034 227.651 144.3 228.66C143.566 229.67 143 230.865 142.635 232.173C142.271 233.48 142.117 234.871 142.183 236.259L142.44 244.513H143.778C144.83 244.511 145.871 244.785 146.841 245.316C147.811 245.847 148.69 246.626 149.426 247.606Z" fill="#D7E8F0"/>
<path opacity="0.38" d="M179.013 256.153L178.925 259.007H178.969V263.524H183.584V262.814L183.376 256.153H179.013Z" fill="#D7E8F0"/>
<path opacity="0.38" d="M176.87 247.606C178.128 249.323 178.886 251.561 179.01 253.931H183.376C183.485 251.769 184.124 249.711 185.2 248.061C185.942 246.946 186.86 246.052 187.889 245.44C188.92 244.828 190.039 244.511 191.17 244.513H192.505L192.763 236.278C192.829 234.889 192.676 233.496 192.313 232.188C191.949 230.879 191.383 229.682 190.65 228.671C189.917 227.66 189.032 226.857 188.05 226.311C187.069 225.766 186.012 225.49 184.945 225.5H177.447C176.381 225.488 175.325 225.763 174.343 226.306C173.362 226.85 172.477 227.651 171.744 228.66C171.01 229.67 170.444 230.865 170.079 232.173C169.715 233.48 169.561 234.871 169.627 236.259L169.884 244.513H171.222C172.274 244.51 173.315 244.783 174.286 245.314C175.256 245.845 176.134 246.625 176.87 247.606Z" fill="#D7E8F0"/>
<path opacity="0.38" d="M206.457 256.153L206.369 259.007H206.413V263.524H211.031V262.81L210.821 256.153H206.457Z" fill="#D7E8F0"/>
<path opacity="0.38" d="M204.315 247.606C205.573 249.323 206.33 251.561 206.454 253.931H210.821C210.929 251.769 211.569 249.711 212.644 248.061C213.387 246.946 214.304 246.052 215.334 245.44C216.364 244.828 217.483 244.511 218.615 244.513H219.952L220.207 236.278C220.274 234.889 220.12 233.497 219.757 232.189C219.394 230.88 218.828 229.683 218.095 228.672C217.362 227.661 216.478 226.858 215.497 226.312C214.515 225.767 213.459 225.49 212.392 225.5H204.879C203.813 225.488 202.757 225.763 201.776 226.306C200.795 226.85 199.91 227.651 199.176 228.66C198.443 229.67 197.876 230.865 197.512 232.173C197.148 233.48 196.994 234.871 197.059 236.259L197.32 244.513H198.657C199.711 244.508 200.754 244.78 201.726 245.312C202.698 245.843 203.578 246.623 204.315 247.606Z" fill="#D7E8F0"/>
<path opacity="0.38" d="M233.901 256.153L233.813 259.006H233.854V263.524H238.473V259.006H244.976C245.552 259.007 246.106 258.716 246.521 258.195C246.936 257.675 247.181 256.965 247.203 256.214L247.247 254.744C246.965 255.172 246.617 255.519 246.226 255.761C245.835 256.004 245.409 256.138 244.976 256.153H233.901Z" fill="#D7E8F0"/>
<path opacity="0.38" d="M231.762 247.606C233.02 249.323 233.777 251.561 233.901 253.931H244.976C245.551 253.93 246.104 253.64 246.519 253.121C246.934 252.601 247.179 251.892 247.203 251.143L247.663 236.278C247.73 234.889 247.576 233.497 247.213 232.188C246.85 230.88 246.284 229.683 245.551 228.672C244.818 227.661 243.934 226.858 242.952 226.312C241.971 225.766 240.915 225.49 239.848 225.5H232.338C231.272 225.487 230.215 225.761 229.234 226.304C228.252 226.847 227.367 227.649 226.633 228.658C225.899 229.667 225.333 230.863 224.969 232.171C224.605 233.479 224.452 234.87 224.518 236.259L224.776 244.512H226.113C227.165 244.512 228.207 244.785 229.177 245.316C230.146 245.847 231.025 246.626 231.762 247.606Z" fill="#D7E8F0"/>
<path opacity="0.38" d="M96.6772 294.177L96.5894 297.034H96.6333V301.552H101.252V300.842L101.041 294.177H96.6772Z" fill="#D7E8F0"/>
<path opacity="0.38" d="M94.5407 285.633C95.7992 287.35 96.5563 289.588 96.6801 291.958H101.047C101.155 289.796 101.795 287.738 102.87 286.088C103.612 284.971 104.528 284.076 105.559 283.464C106.589 282.852 107.709 282.537 108.841 282.54H110.175L110.433 274.305C110.5 272.916 110.347 271.523 109.984 270.214C109.621 268.904 109.055 267.707 108.321 266.695C107.588 265.684 106.703 264.881 105.721 264.335C104.74 263.789 103.682 263.513 102.616 263.524H95.126C94.0601 263.512 93.0038 263.786 92.0225 264.33C91.0414 264.873 90.1564 265.675 89.4229 266.684C88.6895 267.693 88.1229 268.888 87.7585 270.196C87.3944 271.503 87.2402 272.894 87.3057 274.282L87.5633 282.54H88.9037C89.9538 282.538 90.9937 282.811 91.9619 283.342C92.9301 283.874 93.8069 284.653 94.5407 285.633Z" fill="#D7E8F0"/>
<path opacity="0.38" d="M124.121 294.177L124.034 297.034H124.078V301.552H128.696V300.842L128.488 294.177H124.121Z" fill="#D7E8F0"/>
<path opacity="0.38" d="M121.982 285.633C123.239 287.351 123.995 289.589 124.122 291.958H128.491C128.599 289.796 129.239 287.738 130.315 286.088C131.056 284.972 131.973 284.077 133.003 283.465C134.034 282.852 135.153 282.537 136.285 282.54H137.623L137.877 274.305C137.944 272.916 137.791 271.524 137.429 270.215C137.065 268.906 136.5 267.708 135.767 266.697C135.034 265.686 134.149 264.882 133.168 264.336C132.186 263.79 131.13 263.514 130.063 263.524H122.556C121.49 263.512 120.433 263.786 119.452 264.33C118.471 264.873 117.586 265.675 116.853 266.684C116.119 267.693 115.553 268.888 115.188 270.196C114.824 271.503 114.67 272.894 114.735 274.282L114.996 282.54H116.333C117.386 282.537 118.428 282.809 119.398 283.34C120.368 283.872 121.247 284.652 121.982 285.633Z" fill="#D7E8F0"/>
<path opacity="0.38" d="M151.569 294.177L151.478 297.034H151.522V301.552H156.14V300.842L155.933 294.177H151.569Z" fill="#D7E8F0"/>
<path opacity="0.38" d="M149.426 285.633C150.685 287.35 151.442 289.588 151.566 291.958H155.93C156.042 289.796 156.684 287.739 157.759 286.088C158.5 284.972 159.417 284.077 160.448 283.465C161.478 282.852 162.597 282.537 163.729 282.54H165.076L165.33 274.305C165.397 272.916 165.245 271.524 164.882 270.215C164.518 268.906 163.953 267.708 163.22 266.697C162.487 265.686 161.602 264.882 160.621 264.336C159.64 263.79 158.583 263.514 157.516 263.524H150.003C148.937 263.512 147.881 263.786 146.899 264.33C145.918 264.873 145.034 265.675 144.3 266.684C143.566 267.693 143 268.888 142.635 270.196C142.271 271.503 142.117 272.894 142.183 274.282L142.44 282.54H143.778C144.83 282.537 145.872 282.809 146.842 283.34C147.812 283.872 148.691 284.652 149.426 285.633Z" fill="#D7E8F0"/>
<path opacity="0.38" d="M179.013 294.177L178.925 297.034H178.969V301.552H183.584V300.842L183.376 294.177H179.013Z" fill="#D7E8F0"/>
<path opacity="0.38" d="M176.87 285.633C178.129 287.35 178.886 289.588 179.01 291.958H183.376C183.485 289.796 184.124 287.738 185.2 286.088C185.941 284.971 186.858 284.076 187.889 283.464C188.919 282.852 190.038 282.537 191.17 282.54H192.505L192.763 274.305C192.83 272.916 192.677 271.523 192.314 270.214C191.95 268.904 191.384 267.707 190.651 266.695C189.918 265.684 189.033 264.881 188.051 264.335C187.069 263.789 186.012 263.513 184.945 263.524H177.447C176.381 263.512 175.325 263.786 174.343 264.33C173.362 264.873 172.477 265.675 171.744 266.684C171.01 267.693 170.444 268.888 170.079 270.196C169.715 271.503 169.561 272.894 169.627 274.282L169.884 282.54H171.222C172.274 282.536 173.316 282.808 174.286 283.34C175.256 283.871 176.135 284.651 176.87 285.633Z" fill="#D7E8F0"/>
<path opacity="0.38" d="M206.457 294.177L206.369 297.034H206.413V301.552H211.031V300.838L210.821 294.177H206.457Z" fill="#D7E8F0"/>
<path opacity="0.38" d="M204.315 285.633C205.573 287.35 206.33 289.588 206.454 291.958H210.821C210.929 289.796 211.569 287.738 212.644 286.088C213.385 284.971 214.302 284.076 215.333 283.464C216.363 282.852 217.483 282.537 218.615 282.54H219.952L220.207 274.305C220.274 272.916 220.121 271.524 219.758 270.215C219.395 268.906 218.829 267.708 218.096 266.697C217.363 265.686 216.479 264.882 215.497 264.336C214.516 263.79 213.459 263.514 212.392 263.524H204.879C203.813 263.512 202.757 263.786 201.776 264.33C200.795 264.873 199.91 265.675 199.176 266.684C198.443 267.693 197.876 268.888 197.512 270.196C197.148 271.503 196.994 272.894 197.059 274.282L197.32 282.54H198.657C199.711 282.535 200.754 282.806 201.726 283.337C202.698 283.869 203.578 284.65 204.315 285.633Z" fill="#D7E8F0"/>
<path opacity="0.38" d="M233.901 294.177L233.813 297.034H233.854V301.552H238.473V297.034H244.976C245.552 297.034 246.105 296.743 246.52 296.223C246.935 295.702 247.18 294.993 247.203 294.242L247.247 292.772C246.964 293.199 246.616 293.545 246.225 293.787C245.834 294.029 245.409 294.162 244.976 294.177H233.901Z" fill="#D7E8F0"/>
<path opacity="0.38" d="M231.762 285.634C233.02 287.35 233.777 289.588 233.901 291.958H244.976C245.551 291.958 246.104 291.668 246.519 291.148C246.934 290.629 247.179 289.92 247.203 289.17L247.663 274.306C247.73 272.916 247.577 271.524 247.214 270.215C246.851 268.906 246.285 267.709 245.552 266.697C244.819 265.686 243.934 264.882 242.953 264.336C241.972 263.79 240.915 263.514 239.848 263.524H232.338C231.272 263.511 230.215 263.784 229.234 264.328C228.252 264.871 227.367 265.672 226.633 266.682C225.899 267.691 225.333 268.887 224.969 270.195C224.605 271.503 224.452 272.894 224.518 274.283L224.781 282.54H226.119C227.17 282.538 228.211 282.811 229.18 283.342C230.149 283.873 231.027 284.653 231.762 285.634Z" fill="#D7E8F0"/>
</g>
</g>
<path d="M91.4122 67.5845H71.4342C70.6132 67.5841 69.8005 67.7945 69.0421 68.204C68.2835 68.6138 67.5943 69.2141 67.0139 69.9715C66.4332 70.7289 65.9728 71.6279 65.6585 72.6175C65.3445 73.6067 65.1826 74.6676 65.1826 75.7386V101.805C65.1826 103.969 65.8411 106.044 67.0136 107.575C68.1858 109.105 69.7759 109.965 71.4342 109.967H91.4122C93.0699 109.965 94.6594 109.104 95.831 107.573C97.0026 106.043 97.6608 103.968 97.6608 101.805V75.7386C97.6608 74.6676 97.4993 73.6074 97.1852 72.6182C96.8712 71.629 96.4108 70.73 95.8307 69.9726C95.2503 69.2157 94.5617 68.6149 93.8033 68.2051C93.0453 67.7953 92.2328 67.5845 91.4122 67.5845ZM85.1753 96.7711C84.709 97.3554 84.1585 97.8134 83.5556 98.1174C82.9527 98.4218 82.3094 98.5665 81.6632 98.5432C80.4579 98.6009 79.2799 98.0666 78.3618 97.0461C77.9242 96.5565 77.566 95.958 77.3082 95.2854C77.2212 95.0417 77.1803 94.7744 77.1885 94.5055C77.1969 94.237 77.2543 93.9747 77.3559 93.7409C77.4574 93.5072 77.6005 93.3082 77.7729 93.1611C77.9453 93.0137 78.1423 92.9224 78.3472 92.8946C78.6413 92.8369 78.9419 92.903 79.205 93.0836C79.4684 93.2643 79.6803 93.55 79.8105 93.899C79.9171 94.229 80.0734 94.5277 80.27 94.7775C80.4521 95.0116 80.6678 95.196 80.9051 95.3198C81.1422 95.4439 81.396 95.5046 81.6515 95.4993C81.9286 95.5043 82.2032 95.4298 82.456 95.2812C82.7089 95.1326 82.9337 94.9138 83.1148 94.64C83.5272 93.9853 83.7362 93.1528 83.7002 92.3064C83.7297 91.5105 83.5243 90.7302 83.1265 90.1256C82.9536 89.8674 82.7396 89.6608 82.4996 89.5203C82.2596 89.3801 81.9992 89.3091 81.7363 89.3121H81.7217C81.5683 89.3194 81.4156 89.2827 81.2742 89.2052C81.1325 89.1277 81.0055 89.0112 80.9022 88.8634C80.7986 88.7156 80.7208 88.5399 80.6742 88.3493C80.628 88.1583 80.6136 87.9563 80.633 87.7577V87.6966C80.6596 87.4178 80.7527 87.1573 80.8993 86.9514C81.0459 86.746 81.2385 86.6058 81.4495 86.5508C81.8332 86.484 82.195 86.2789 82.4944 85.9588C82.6899 85.7316 82.8438 85.4497 82.9451 85.1346C83.0464 84.8192 83.0923 84.4785 83.0797 84.1371C83.0961 83.8548 83.066 83.5714 82.991 83.306C82.9161 83.0402 82.7985 82.7988 82.6457 82.5975C82.4929 82.3966 82.3091 82.2408 82.1063 82.1407C81.9035 82.0407 81.6863 81.9987 81.47 82.0174C81.2414 82.0117 81.0143 82.0663 80.8024 82.1786C80.5905 82.2908 80.3985 82.4585 80.2378 82.6705C80.0652 82.8962 79.9282 83.1631 79.8339 83.4572C79.7195 83.7738 79.5278 84.0316 79.2887 84.1905C79.0499 84.3494 78.7774 84.4006 78.514 84.3357H78.4789C78.2851 84.2948 78.101 84.1966 77.9409 84.0485C77.7808 83.9006 77.6485 83.707 77.5546 83.4821C77.4606 83.2575 77.4071 83.0073 77.3983 82.7518C77.3898 82.4959 77.4258 82.2408 77.5043 82.0059C77.597 81.7386 77.7088 81.4827 77.8379 81.2421C78.2234 80.5286 78.7493 79.9642 79.3598 79.6074C80.0476 79.2034 80.7948 79.0013 81.549 79.0155C82.9343 79.0155 84.0435 79.591 84.8767 80.7418C85.2007 81.1588 85.4583 81.6553 85.6351 82.2026C85.8118 82.7499 85.9043 83.3369 85.907 83.9308C85.907 85.614 85.2025 86.9557 83.7938 87.9563C84.5899 88.1572 85.3055 88.7201 85.8133 89.5451C86.3246 90.3861 86.5921 91.4356 86.5684 92.5088C86.5751 93.3067 86.4549 94.0972 86.2152 94.8309C85.9752 95.565 85.621 96.2253 85.1753 96.7711Z" fill="#D7E8F0"/>
<path d="M125.857 67.5845H105.888C104.23 67.5845 102.64 68.4434 101.467 69.9723C100.294 71.5015 99.6348 73.5753 99.6333 75.7386V101.805C99.6348 103.969 100.294 106.044 101.467 107.574C102.639 109.104 104.229 109.965 105.888 109.967H125.857C127.515 109.965 129.104 109.104 130.276 107.573C131.447 106.043 132.106 103.968 132.106 101.805V75.7386C132.106 74.6676 131.944 73.6074 131.63 72.6182C131.316 71.629 130.856 70.73 130.276 69.9726C129.695 69.2157 129.006 68.6149 128.248 68.2051C127.49 67.7953 126.678 67.5845 125.857 67.5845ZM119.248 95.083C119.423 95.083 119.596 95.1281 119.757 95.2151C119.918 95.3022 120.065 95.4298 120.188 95.591C120.311 95.7517 120.409 95.9431 120.476 96.1535C120.543 96.364 120.577 96.5893 120.577 96.8169C120.577 97.0446 120.543 97.2703 120.476 97.4807C120.409 97.6908 120.311 97.8821 120.188 98.0429C120.065 98.2041 119.918 98.3316 119.757 98.4191C119.596 98.5062 119.423 98.5509 119.248 98.5509H113.172C112.841 98.552 112.515 98.4393 112.227 98.2247C111.939 98.0101 111.7 97.7003 111.532 97.3272C111.364 96.954 111.275 96.5297 111.272 96.097C111.269 95.6647 111.353 95.2384 111.516 94.8615C111.524 94.8512 111.531 94.8378 111.533 94.8233C112.078 93.6496 113.151 92.0925 114.753 90.1524C116.044 88.5815 116.837 87.5171 117.129 86.9595C117.497 86.2903 117.701 85.4914 117.715 84.6679C117.732 84.3208 117.695 83.9728 117.607 83.6448C117.518 83.3167 117.38 83.015 117.2 82.7583C116.967 82.4379 116.675 82.2022 116.351 82.0743C116.028 81.9463 115.684 81.9303 115.355 82.0285C115.025 82.1262 114.72 82.3344 114.471 82.6327C114.222 82.9306 114.037 83.3083 113.933 83.7284C113.846 84.1141 113.659 84.4483 113.405 84.676C113.151 84.9032 112.844 85.0098 112.537 84.9773L112.371 84.9506C112.168 84.9242 111.973 84.8379 111.8 84.6981C111.627 84.5583 111.481 84.3685 111.373 84.1435C111.266 83.9186 111.199 83.6646 111.178 83.4007C111.157 83.1368 111.182 82.8698 111.253 82.6208C111.485 81.7164 111.914 80.9201 112.488 80.3293C113.461 79.4008 114.646 78.9272 115.85 78.9849C117.326 78.9849 118.484 79.5032 119.325 80.5393C119.735 81.0293 120.059 81.6282 120.277 82.2954C120.496 82.9626 120.602 83.6829 120.589 84.4082C120.592 85.2668 120.469 86.1185 120.229 86.9175C119.938 87.815 119.552 88.6545 119.082 89.4114C118.501 90.2963 117.873 91.1274 117.203 91.8978C116.301 92.9824 115.739 93.6966 115.485 94.0556C115.262 94.3722 115.065 94.7194 114.899 95.0906L119.248 95.083Z" fill="#D7E8F0"/>
<path d="M207.713 249.686C205.187 252.814 202.538 255.759 200.103 258.975" stroke="#CCDDE2" stroke-width="4.47" stroke-miterlimit="10"/>
<path d="M171.014 106.236C171.19 106.282 171.362 106.339 171.547 106.408C185.941 111.297 199.775 122.984 211.728 144.746C217.836 155.867 222.645 168.425 224.588 181.972C227.003 198.799 224.372 215.669 218.533 230.679" stroke="#CCDDE2" stroke-width="4.47" stroke-miterlimit="10"/>
<path d="M189.66 279.489C187.448 284.797 185.016 289.892 181.287 293.711C174.936 300.238 165.945 301.228 158.224 298.1C148.859 294.303 138.814 284.832 135.51 272.369C131.869 258.62 127.198 244.871 114.712 243.152C103.857 241.686 93.376 249.152 82.6056 243.947C61.6003 233.795 79.8632 194.251 73.9453 174.91C71.5161 166.962 66.7221 162.368 60.9388 159.251C50.1684 153.408 35.9941 152.621 27.3338 144.62C12.2991 130.718 8.21624 103.265 5.42997 81.419C2.20185 55.7369 2.18996 29.5411 5.39485 3.854" stroke="#CCDDE2" stroke-width="4.47" stroke-miterlimit="10"/>
<path d="M62.6393 2.53979L61.9135 4.54127C61.5535 5.54191 61.2023 6.56164 60.8745 7.59666C59.2341 12.6396 57.9554 17.87 57.0551 23.2212C56.4036 27.0492 55.952 30.9311 55.7029 34.8393C55.659 35.5153 55.6239 36.1951 55.5976 36.8711C55.4079 40.7862 55.4243 44.7143 55.6473 48.6267C55.6473 48.7719 55.6473 48.9246 55.6678 49.0736H32.9328C33.1909 46.5857 33.3493 44.0818 33.4069 41.5726C33.4069 40.9386 33.4274 40.2893 33.4274 39.663C33.4274 37.9252 33.3806 36.1837 33.2752 34.4574C33.1359 31.8316 32.8748 29.2197 32.4938 26.6356C32.245 24.9054 31.9435 23.1792 31.5806 21.4758C30.4178 15.8519 28.7147 10.4431 26.5115 5.37768L26.2188 4.67112L25.2939 2.53979H62.6393Z" stroke="black" stroke-width="4.47" stroke-miterlimit="10"/>
<path d="M62.6393 2.53979L61.9134 4.54127C61.5535 5.54191 61.2023 6.56165 60.8745 7.59666C59.234 12.6396 57.9553 17.87 57.055 23.2212C54.987 24.1725 52.8092 24.6557 50.6162 24.6496C49.9085 24.6477 49.2011 24.5991 48.4972 24.5044C44.168 23.8792 40.1244 21.3765 37.0144 17.3972C33.9044 13.4176 31.9075 8.19131 31.3435 2.55507L62.6393 2.53979Z" stroke="black" stroke-width="4.47" stroke-miterlimit="10"/>
<path d="M62.6393 2.53979L61.9135 4.54127C61.5535 5.54191 61.2023 6.56165 60.8745 7.59666C59.234 12.6396 57.9553 17.87 57.0551 23.2212C56.4039 27.0492 55.952 30.9311 55.7029 34.8393C55.2902 34.866 54.8776 34.8775 54.462 34.8775C47.004 34.8901 39.7992 31.3462 34.203 24.9131C33.2737 23.8361 32.3942 22.6884 31.5689 21.4758C30.4064 15.8519 28.703 10.4431 26.4998 5.37768L26.2071 4.67112L25.2822 2.53979H62.6393Z" stroke="black" stroke-width="4.47" stroke-miterlimit="10"/>
<path d="M26.3943 2.53979H62.6392L61.9134 4.54127C61.5534 5.54191 61.2022 6.56165 60.8744 7.59666C59.2339 12.6396 57.9552 17.87 57.055 23.2212C56.4035 27.0492 55.9519 30.9311 55.7028 34.8393" stroke="black" stroke-width="4.47" stroke-miterlimit="10"/>
<path d="M55.6151 36.8564C55.4254 40.7715 55.4421 44.6995 55.6648 48.612C53.0866 48.5081 50.5292 47.9726 48.0553 47.0194C42.2901 44.8065 37.1513 40.4304 33.2781 34.435C33.137 31.8169 32.8751 29.2125 32.4937 26.6361C32.2449 24.906 31.9435 23.1797 31.5806 21.4763C30.4181 15.8525 28.7147 10.4436 26.5114 5.37819L26.2188 4.67163" stroke="black" stroke-width="4.47" stroke-miterlimit="10"/>
<path d="M44.5929 2.53979C43.5964 8.61067 41.5313 14.296 38.5609 19.146C37.2658 21.2535 35.8074 23.1811 34.2088 24.8978C33.6527 25.5165 33.0791 26.0894 32.4791 26.6356C32.2303 24.9055 31.9289 23.1792 31.566 21.4758C30.4035 15.8519 28.7001 10.4431 26.4968 5.37768L26.2041 4.67112L25.2793 2.53979H44.5929Z" stroke="black" stroke-width="4.47" stroke-miterlimit="10"/>
<path d="M48.5119 24.4892C47.2382 27.3746 45.6914 30.0397 43.9081 32.4217C42.0724 34.8527 40.007 36.9689 37.7619 38.7196C37.5131 38.9221 37.2614 39.1016 37.0039 39.2849C35.8458 40.1484 34.6429 40.905 33.404 41.5497C33.404 40.9157 33.4245 40.2664 33.4245 39.6401C33.4245 37.9023 33.3776 36.1607 33.2723 34.4345C33.1333 31.8167 32.8731 29.2124 32.4938 26.6356C32.245 24.9055 31.9435 23.1792 31.5806 21.4758C30.4178 15.8519 28.7147 10.4431 26.5115 5.37768L26.2188 4.67112L25.2939 2.53979H52.6415C52.9023 10.2212 51.4691 17.8387 48.5119 24.4892Z" stroke="black" stroke-width="4.47" stroke-miterlimit="10"/>
<path d="M62.9933 1H7.57813C6.36906 1 5.38892 2.27903 5.38892 3.85679C5.38892 5.43441 6.36906 6.71347 7.57813 6.71347H62.9933C64.2024 6.71347 65.1825 5.43441 65.1825 3.85679C65.1825 2.27903 64.2024 1 62.9933 1Z" fill="black"/>
<path d="M148.376 71.7975C147.758 70.9229 147.079 70.3309 146.327 70.2163C136.177 71.0833 126.759 78.0648 117.689 84.1909C110.152 89.2858 102.747 94.7205 95.5506 100.614C90.1829 105.002 84.9206 109.639 79.8661 114.642C76.4184 118.041 73.0468 121.623 69.8566 125.443C69.2303 126.206 62.929 133.211 64.1758 134.914C65.4226 136.618 67.3952 134.311 68.4898 133.459C69.5844 132.607 71.2673 130.935 72.3912 130.152C70.869 133.408 69.6945 136.919 68.8996 140.59C68.6274 141.919 68.2528 143.374 68.3142 144.76C68.3391 145.265 68.5144 145.737 68.8027 146.076C69.091 146.414 69.4694 146.592 69.8566 146.571C70.1792 146.554 70.49 146.408 70.7469 146.153C71.0042 145.899 71.195 145.547 71.2937 145.146L75.9033 130.572C75.2858 132.821 73.9775 138.21 73.5619 141.873C73.3717 143.5 73.8751 144.829 75.0516 144.466C75.3461 144.359 75.6168 144.161 75.8413 143.89C76.0657 143.619 76.2375 143.283 76.3423 142.908L80.4925 128.884C79.6443 132.606 79.181 136.459 79.114 140.341C79.1107 140.529 79.1365 140.716 79.1895 140.891C79.2427 141.066 79.3218 141.226 79.4227 141.36C79.5237 141.495 79.644 141.602 79.7769 141.675C79.91 141.748 80.0526 141.785 80.1968 141.785C81.4671 141.785 81.6602 139.035 81.991 137.886C82.9495 134.625 84.3883 131.64 86.226 129.101C87.5137 127.318 89.2581 126.099 90.8854 124.9C94.0872 122.634 97.4272 120.718 100.871 119.171C108.563 115.554 116.5 112.919 124.37 110.078C124.473 110.043 124.569 109.998 124.663 109.963C124.897 109.883 125.125 109.791 125.36 109.711C129.987 108.019 134.605 106.274 139.142 104.208C139.434 104.074 139.727 103.948 139.996 103.826C140.001 103.819 140.006 103.813 140.012 103.809C140.018 103.805 140.025 103.803 140.031 103.803C142.706 102.237 145.3 100.335 147.404 98.0509C147.404 98.0509 147.404 98.0509 147.421 98.028C154.718 88.9229 150.319 76.2889 148.376 71.7975ZM75.9911 130.297C76.052 130.034 76.1304 129.778 76.2253 129.533L75.9911 130.297Z" fill="white"/>
<path d="M75.9121 130.557C75.9121 130.557 75.9121 130.523 75.9297 130.511L75.9911 130.298" fill="white"/>
<path d="M75.9121 130.557C75.9121 130.557 75.9121 130.523 75.9297 130.511L75.9911 130.298" fill="white"/>
<path d="M182.016 193.303C182.016 193.303 182.601 216.219 196.357 220.164C210.113 224.109 209.123 228.509 219.221 230.678C229.318 232.847 212.369 250.92 212.369 250.92L195.338 246.268L199.55 257.753L192.526 282.547C192.526 282.547 163.13 244.003 152.798 220.133C142.467 196.263 166.425 188.12 167.139 188.12C167.853 188.12 182.016 193.303 182.016 193.303Z" fill="white"/>
<path d="M158.569 218.094C158.97 218.721 159.389 219.336 159.816 219.958C160.864 221.306 158.537 224.679 156.035 226.203C148.323 212.045 141.024 196.741 135.36 181.235C134.968 180.154 134.576 179.062 134.19 177.969C134.102 177.733 134.014 177.481 133.938 177.232C133.432 175.705 132.846 173.925 132.369 172.401C136.551 168.135 143.383 159.076 147.407 151.945C150.202 146.98 153.775 146.079 156.632 146.365C156.667 146.365 156.702 146.365 156.729 146.365C157.961 146.504 159.176 146.84 160.346 147.366C160.381 147.366 160.413 147.4 160.448 147.408C160.563 147.454 160.668 147.5 160.779 147.557C160.89 147.614 160.99 147.649 161.095 147.706C162.092 148.168 163.057 148.741 163.978 149.421C178.381 164.316 180.298 182.69 182.572 196.913C176.241 206.052 165.793 222.834 158.569 218.094Z" fill="#3FBDF1"/>
<path d="M164.505 141.477C163.764 144.486 163.276 146.285 163.276 146.285C163.276 146.285 162.69 148.431 161.411 147.855C160.132 147.278 152.49 142.955 147.418 151.945C143.394 159.076 136.563 168.135 132.381 172.401C131.569 173.294 130.677 174.053 129.723 174.662C126.682 176.255 123.205 179.516 123.284 175.449C123.363 171.381 121.839 111.003 124.394 110.071C126.949 109.139 155.505 102.704 152.151 82.7061C152.151 82.7061 149.956 70.7327 146.333 70.221C142.709 69.7092 148.258 70.1293 148.258 70.1293C148.258 70.1293 165.927 69.6175 170.546 86.0823C174.21 99.2013 167.417 129.664 164.505 141.477Z" fill="#2E2E2E"/>
<path d="M214.699 42.5383C213.66 42.0952 212.825 35.4116 210.873 37.1913C209.626 38.3371 211.283 44.8298 211.394 45.9565C211.654 48.5623 211.47 51.211 210.856 53.7133C210.794 53.7573 210.729 53.7943 210.663 53.8241C210.305 54.0395 209.938 54.2244 209.562 54.3779C209.389 54.4581 209.205 54.5268 209.024 54.5956C208.842 54.6643 208.731 54.6987 208.596 54.7445L208.116 54.8782C207.891 54.9355 207.671 54.9928 207.446 55.0386C206.759 55.1773 206.066 55.246 205.371 55.2449C205.119 55.2449 204.868 55.2449 204.622 55.2219C204.467 55.2219 204.329 55.1876 204.162 55.1761C204.066 55.1761 203.96 55.1532 203.87 55.1303C203.377 55.0634 202.888 54.9565 202.406 54.8095C202.242 54.7675 202.084 54.7216 201.929 54.6643C201.772 54.6197 201.618 54.5624 201.467 54.4925C201.203 54.3894 200.943 54.2786 200.691 54.164C200.603 54.1182 200.507 54.0724 200.398 54.0151C200.161 53.9005 199.927 53.7668 199.699 53.6331C199.677 53.6301 199.656 53.6182 199.64 53.5988C199.095 53.2657 198.567 52.8827 198.063 52.453C198.033 52.4385 198.006 52.4148 197.984 52.3843C195.986 49.9583 194.595 46.8032 193.991 43.3304C193.387 39.8575 193.598 36.2281 194.598 32.9142C195.597 29.6006 197.338 26.7564 199.594 24.7521C201.849 22.7477 204.515 21.6764 207.244 21.6776C209.861 21.6673 212.424 22.6549 214.617 24.5191C214.78 24.7215 214.947 24.9277 215.105 25.1454C215.263 25.3631 215.427 25.5885 215.582 25.8138C212.805 25.9742 215.565 33.1009 215.992 35.4116C216.335 37.1111 217.464 43.684 214.699 42.5383Z" fill="#3FBDF1"/>
<path d="M194.694 246.061C197.472 253.123 200.112 259.196 202.544 264.344C210.812 281.913 216.546 288.925 216.546 288.925L209.767 326.105C209.668 326.653 209.475 327.165 209.201 327.6C208.928 328.035 208.582 328.384 208.19 328.618C207.816 328.863 207.405 328.994 206.987 329C206.228 328.997 205.5 328.602 204.963 327.902C204.426 327.201 204.124 326.252 204.121 325.261V298.671C204.121 298.671 198.493 291.797 190.216 280.274C180.83 267.209 168.04 248.193 156.21 226.518C156.149 226.415 156.096 226.301 156.035 226.201C148.323 212.043 141.024 196.74 135.36 181.234C134.968 180.153 134.576 179.061 134.19 177.968C134.102 177.731 134.014 177.479 133.938 177.231C133.388 175.673 132.873 174.115 132.369 172.545" stroke="black" stroke-width="4.47" stroke-linecap="round" stroke-linejoin="round"/>
<path d="M139.159 176.368C139.159 176.368 146.017 198.925 158.569 218.093C158.684 218.265 158.789 218.433 158.9 218.605C159.193 219.06 159.503 219.503 159.816 219.957C166.413 229.612 174.488 238.171 183.889 242.151C187.471 243.679 191.086 244.95 194.694 246.062C202.099 248.384 209.486 250.076 216.545 252.043C232.83 256.557 247.344 262.458 256.18 280.446C256.535 281.137 257.071 281.636 257.687 281.85C258.304 282.065 258.959 281.98 259.531 281.612C260.103 281.244 260.553 280.617 260.798 279.849C261.043 279.08 261.066 278.222 260.862 277.433L252.065 245.859C252.065 245.859 234.82 238.221 218.032 230.441C208.037 225.824 198.201 221.176 192.242 218.059C185.935 214.763 184.184 206.861 182.598 196.923C182.118 193.933 181.656 190.751 181.091 187.463C178.963 175.127 175.375 161.202 164.004 149.431" stroke="black" stroke-width="4.47" stroke-linecap="round" stroke-linejoin="round"/>
<path d="M72.403 130.141C71.2733 130.924 69.5992 132.597 68.4987 133.445C67.3982 134.293 65.4198 136.58 64.1847 134.9C62.9496 133.219 69.2392 126.181 69.8684 125.417C73.0527 121.597 76.4214 118.023 79.8721 114.616C84.9324 109.62 90.1889 104.98 95.5624 100.588C102.756 94.7062 110.164 89.2752 117.697 84.1651C129.302 76.3204 141.474 67.1007 155.019 71.046C159.781 72.4324 164.449 75.5298 167.727 80.3306C172.937 87.9461 172.829 98.6629 171.295 108.077C169.138 121.326 165.699 135.435 162.787 148.424" stroke="black" stroke-width="4.47" stroke-linecap="round" stroke-linejoin="round"/>
<path d="M163.519 75.1656C172.972 77.4572 183.359 80.6233 192.83 76.7353C199.807 73.8594 208.441 64.17 210.856 53.7359C211.47 51.2323 211.655 48.5826 211.394 45.9752C211.283 44.8523 209.638 38.3711 210.873 37.21C212.826 35.4264 213.66 42.1101 214.699 42.5569C217.467 43.7027 216.335 37.1222 216.013 35.4302C215.586 33.1196 212.826 25.9929 215.603 25.8325C215.603 25.8325 215.638 25.8325 215.656 25.8325C217.286 25.7867 219.098 33.0318 219.221 33.8032C220.535 41.648 220.134 49.867 219.177 57.7804C216.616 78.8741 204.862 100.522 187.688 103.317C182.42 104.169 177.067 104.364 171.76 104.795" stroke="black" stroke-width="4.47" stroke-linecap="round" stroke-linejoin="round"/>
<path d="M163.516 75.1627C163.516 75.1627 161.698 67.0392 168.09 60.1073C174.482 53.1754 173.238 40.6292 168.798 36.9436C164.359 33.258 157.838 30.7488 152.78 35.9582C147.723 41.1677 145.99 45.5063 145.99 45.5063L147.588 47.416C147.588 47.416 141.395 58.1977 146.605 60.9666C151.814 63.7356 155.842 60.4472 155.842 60.4472" stroke="black" stroke-width="4.47" stroke-linecap="round" stroke-linejoin="round"/>
<path d="M153.392 37.5091C153.392 37.5091 155.575 37.1615 154.911 41.3283" stroke="black" stroke-width="4.47" stroke-linecap="round" stroke-linejoin="round"/>
<path d="M158.514 33.0203C158.514 33.0203 161.964 35.0597 161.3 37.5002C160.636 39.9407 159.529 39.2456 159.948 43.76C160.115 45.2991 159.975 46.8684 159.541 48.3163C159.307 49.0496 158.581 49.6378 158.806 50.5277C159.046 51.4825 160.182 51.7689 160.817 51.6009C161.61 51.3946 162.02 50.669 162.673 50.1725C163.333 49.7428 164.071 49.5579 164.806 49.6378C166.126 49.7065 167.546 50.5888 167.309 52.6015C167.107 54.324 165.719 55.126 164.762 56.0388C163.123 57.6391 161.994 63.3756 164.578 64.5939" stroke="black" stroke-width="4.47" stroke-linecap="round" stroke-linejoin="round"/>
<path d="M72.4029 130.14C70.8824 133.396 69.7068 136.906 68.9084 140.574C68.6391 141.907 68.2645 143.355 68.323 144.745C68.3441 145.25 68.5182 145.724 68.8068 146.062C69.0957 146.4 69.4753 146.575 69.8625 146.548C70.1853 146.533 70.4967 146.389 70.7545 146.135C71.0127 145.882 71.205 145.531 71.3054 145.131L75.9121 130.553M75.9121 130.553C75.9121 130.553 75.9121 130.518 75.9121 130.507M75.9121 130.553C75.9121 130.541 75.9121 130.507 75.9121 130.507M75.9121 130.553C75.2945 132.814 73.9892 138.191 73.5707 141.861C73.3834 143.481 73.8838 144.818 75.0633 144.447C75.3575 144.342 75.6279 144.146 75.8515 143.875C76.0751 143.605 76.2454 143.268 76.3482 142.893L80.4924 128.887C79.6463 132.61 79.1848 136.463 79.1198 140.345C79.1172 140.533 79.1429 140.719 79.1962 140.893C79.2492 141.067 79.3282 141.226 79.4289 141.359C79.5292 141.493 79.6492 141.599 79.7818 141.672C79.9141 141.744 80.0564 141.781 80.1998 141.781C81.4729 141.781 81.6632 139.039 81.9968 137.889C82.9553 134.629 84.3929 131.645 86.2289 129.105C87.5225 127.31 89.2581 126.103 90.8883 124.904C94.0887 122.634 97.429 120.718 100.874 119.175C108.888 115.402 117.179 112.682 125.374 109.719C130.001 108.031 134.623 106.281 139.162 104.223C160.548 94.4914 149.456 73.646 149.456 73.646M75.9121 130.507L75.9706 130.297M75.9706 130.297C76.0397 130.024 76.1219 129.758 76.2165 129.499L75.9706 130.297Z" stroke="black" stroke-width="4.47" stroke-linecap="round" stroke-linejoin="round"/>
<path d="M153.152 146.543C154.304 146.276 155.479 146.215 156.643 146.364C156.679 146.364 156.714 146.364 156.74 146.364C157.97 146.53 159.182 146.865 160.358 147.365L160.46 147.407C160.574 147.452 160.679 147.498 160.791 147.556C160.902 147.613 161.001 147.647 161.107 147.705C162.104 148.166 163.069 148.74 163.99 149.419" stroke="black" stroke-width="4.47" stroke-linecap="round" stroke-linejoin="round"/>
<path d="M153.033 41.8091C153.347 41.0216 153.285 40.1676 152.894 39.9014C152.502 39.6352 151.93 40.058 151.616 40.8455C151.302 41.6331 151.364 42.4874 151.755 42.7533C152.146 43.0195 152.719 42.5967 153.033 41.8091Z" fill="black"/>
<path d="M150.454 62.0583L147.588 70.1284" stroke="black" stroke-width="4.47" stroke-linecap="round" stroke-linejoin="round"/>
<path d="M147.188 52.7086C147.188 52.7086 150.717 53.8543 151.648 51.3184" stroke="black" stroke-width="4.47" stroke-linecap="round" stroke-linejoin="round"/>
<path d="M214.699 42.5391C213.66 42.0961 212.826 35.4124 210.874 37.1922C209.627 38.338 211.283 44.8307 211.395 45.9574C211.654 48.5632 211.47 51.2115 210.856 53.7142L210.663 53.8135C210.306 54.0324 209.938 54.2214 209.562 54.3788C209.39 54.459 209.205 54.5277 209.024 54.5965C208.842 54.6652 208.731 54.6996 208.597 54.7454L208.117 54.8791C207.891 54.9364 207.672 54.9937 207.446 55.0395C206.76 55.1778 206.066 55.2469 205.371 55.2458C205.12 55.2458 204.868 55.2458 204.622 55.2228C204.467 55.2228 204.329 55.1885 204.163 55.177C204.066 55.177 203.961 55.1541 203.87 55.1312C203.377 55.0643 202.888 54.957 202.406 54.8104C202.243 54.7683 202.085 54.7225 201.929 54.6652C201.773 54.6205 201.618 54.5629 201.467 54.4934C201.204 54.3902 200.943 54.2795 200.691 54.1649C200.604 54.1191 200.507 54.0732 200.399 54.016C200.162 53.9014 199.927 53.7677 199.699 53.634C199.677 53.631 199.657 53.6188 199.641 53.5997C199.095 53.2662 198.568 52.8836 198.063 52.4539C198.033 52.439 198.006 52.4157 197.984 52.3851C196.401 51.0549 195.047 49.3099 194.008 47.2605C192.97 45.2111 192.269 42.9024 191.951 40.481C191.632 38.0592 191.704 35.5778 192.16 33.1938C192.615 30.8099 193.446 28.576 194.599 26.6335C195.752 24.6911 197.202 23.0824 198.857 21.9103C200.511 20.7382 202.335 20.0278 204.211 19.8246C206.087 19.621 207.976 19.9289 209.756 20.7286C211.536 21.5284 213.17 22.8025 214.552 24.4703L214.617 24.52C214.781 24.7224 214.948 24.9286 215.106 25.1463C215.264 25.364 215.428 25.5894 215.583 25.8147C212.805 25.9751 215.565 33.1018 215.992 35.4124C216.335 37.112 217.465 43.6849 214.699 42.5391Z" stroke="black" stroke-width="4.47" stroke-linecap="round" stroke-linejoin="round"/>
<path d="M123.273 110.83L123.343 178.66" stroke="black" stroke-width="4.47" stroke-linecap="round" stroke-linejoin="round"/>
<path d="M135.36 181.235C135.36 181.235 127.736 182.236 125.219 180.994C124.688 180.783 124.191 180.443 123.756 179.994C123.609 179.833 123.495 179.628 123.424 179.396C123.353 179.164 123.326 178.913 123.346 178.665C123.388 178.374 123.497 178.108 123.659 177.901C124.408 176.797 125.661 176.648 126.682 176.262C128.726 175.447 130.652 174.194 132.381 172.554" stroke="black" stroke-width="4.47" stroke-linecap="round" stroke-linejoin="round"/>
<path d="M135.36 181.235C135.36 181.235 127.736 182.236 125.219 180.994C124.688 180.783 124.191 180.443 123.756 179.994C123.609 179.833 123.495 179.628 123.424 179.396C123.353 179.164 123.326 178.913 123.346 178.665C123.388 178.374 123.497 178.108 123.659 177.901C124.408 176.797 125.661 176.648 126.682 176.262C128.726 175.447 130.652 174.194 132.381 172.554" fill="black"/>
</svg>
